<svg width="26" height="26" viewBox="0 0 26 26" fill="none" xmlns="http://www.w3.org/2000/svg">
<g clip-path="url(#clip0_154_45)">
<path d="M24.5143 3.15714H17.0858V0.742857C17.0858 0.334286 16.7515 0 16.3429 0H9.65721C9.24863 0 8.91435 0.334286 8.91435 0.742857V3.15714H1.48578C1.07721 3.15714 0.74292 3.49143 0.74292 3.9C0.74292 4.30857 1.07721 4.64286 1.48578 4.64286H3.93721V25.2571C3.93721 25.6657 4.27149 26 4.68006 26H21.3201C21.7286 26 22.0629 25.6657 22.0629 25.2571V4.64286H24.5143C24.9229 4.64286 25.2572 4.30857 25.2572 3.9C25.2572 3.49143 24.9229 3.15714 24.5143 3.15714ZM10.4001 1.48571H15.6001V2.97143H10.4001V1.48571ZM20.5772 24.5143H5.42292V4.64286H20.5772V24.5143ZM17.0858 8.65429V20.54C17.0858 20.9486 16.7515 21.2829 16.3429 21.2829C15.9343 21.2829 15.6001 20.9486 15.6001 20.54V8.65429C15.6001 8.24571 15.9343 7.91143 16.3429 7.91143C16.7515 7.91143 17.0858 8.20857 17.0858 8.65429ZM10.4001 8.65429V20.54C10.4001 20.9486 10.0658 21.2829 9.65721 21.2829C9.24863 21.2829 8.91435 20.9486 8.91435 20.54V8.65429C8.91435 8.24571 9.24863 7.91143 9.65721 7.91143C10.0658 7.91143 10.4001 8.20857 10.4001 8.65429Z" fill="#1B4E9B"/>
</g>
<defs>
<clipPath id="clip0_154_45">
<rect width="26" height="26" fill="white"/>
</clipPath>
</defs>
</svg>
