<svg width="125" height="121" viewBox="0 0 125 121" fill="none" xmlns="http://www.w3.org/2000/svg">
<path d="M62.1877 40.395C73.596 40.395 82.8196 49.3783 82.8196 60.4292C82.8194 71.48 73.5959 80.4624 62.1877 80.4624C50.7796 80.4624 41.5561 71.4799 41.5559 60.4292C41.5559 49.3783 50.7795 40.395 62.1877 40.395Z" stroke="#00DAE3"/>
<path d="M62.7921 21.6213C85.2041 21.6216 103.348 39.2726 103.348 61.0159C103.348 82.759 85.204 100.409 62.7921 100.409C40.38 100.409 22.2356 82.7592 22.2355 61.0159C22.2355 39.2725 40.3799 21.6213 62.7921 21.6213Z" stroke="#00DAE3"/>
<path d="M62.1885 0.5C96.2712 0.500198 123.876 27.3441 123.876 60.4277C123.876 93.5115 96.2713 120.356 62.1885 120.356C28.1055 120.356 0.5 93.5116 0.5 60.4277C0.500178 27.344 28.1056 0.5 62.1885 0.5Z" stroke="#00DAE3"/>
</svg>
