<svg width="83" height="81" viewBox="0 0 83 81" fill="none" xmlns="http://www.w3.org/2000/svg">
<path d="M41.4585 27.0967C48.9765 27.0967 55.0464 33.0154 55.0464 40.2861C55.0462 47.5568 48.9764 53.4746 41.4585 53.4746C33.9406 53.4746 27.8707 47.5568 27.8706 40.2861C27.8706 33.0154 33.9405 27.0967 41.4585 27.0967Z" stroke="#00DAE3"/>
<path d="M41.8613 14.5808C56.715 14.581 68.7312 26.2777 68.7314 40.6765C68.7314 55.0755 56.7152 66.773 41.8613 66.7732C27.0074 66.7732 14.9902 55.0756 14.9902 40.6765C14.9905 26.2776 27.0075 14.5808 41.8613 14.5808Z" stroke="#00DAE3"/>
<path d="M41.459 0.5C64.0933 0.500132 82.4169 18.3259 82.417 40.2852C82.417 62.2445 64.0934 80.0702 41.459 80.0703C18.8245 80.0703 0.5 62.2446 0.5 40.2852C0.500121 18.3258 18.8245 0.5 41.459 0.5Z" stroke="#00DAE3"/>
</svg>
