<svg width="294" height="279" viewBox="0 0 294 279" fill="none" xmlns="http://www.w3.org/2000/svg">
<ellipse cx="174.335" cy="160.915" rx="119.5" ry="118" fill="#23376A"/>
<path d="M82.917 53.6909C98.2154 53.6909 110.593 65.738 110.593 80.5688C110.593 95.3999 98.2156 107.448 82.917 107.448C67.6184 107.448 55.2412 95.3999 55.2412 80.5688C55.2415 65.738 67.6186 53.6909 82.917 53.6909Z" stroke="#00DAE3"/>
<path d="M83.7217 28.6592C113.692 28.6592 137.964 52.2638 137.964 81.3516C137.964 110.439 113.692 134.044 83.7217 134.044C53.7514 134.044 29.4805 110.439 29.4805 81.3516C29.4805 52.264 53.7514 28.6594 83.7217 28.6592Z" stroke="#00DAE3"/>
<path d="M82.917 0.5C128.448 0.5 165.335 36.3621 165.335 80.5703C165.335 124.779 128.449 160.642 82.917 160.642C37.3857 160.641 0.5 124.779 0.5 80.5703C0.500242 36.3622 37.3858 0.500248 82.917 0.5Z" stroke="#00DAE3"/>
</svg>
