<svg width="33" height="32" viewBox="0 0 33 32" fill="none" xmlns="http://www.w3.org/2000/svg">
<path d="M16.5 0C7.65789 0 0.5 7.15789 0.5 16C0.5 24.8421 7.65789 32 16.5 32C25.3421 32 32.5 24.8421 32.5 16C32.5 7.15789 25.3421 0 16.5 0ZM16.5 30.3158C8.58421 30.3158 2.18421 23.9158 2.18421 16C2.18421 8.08421 8.58421 1.68421 16.5 1.68421C24.4158 1.68421 30.8158 8.08421 30.8158 16C30.8158 23.9158 24.4158 30.3158 16.5 30.3158ZM17.6789 16L22.9842 10.6947C23.3211 10.3579 23.3211 9.85263 22.9842 9.51579C22.6474 9.17895 22.1421 9.17895 21.8053 9.51579L16.5 14.8211L11.1947 9.51579C10.8579 9.17895 10.3526 9.17895 10.0158 9.51579C9.67895 9.85263 9.67895 10.3579 10.0158 10.6947L15.3211 16L10.0158 21.3053C9.67895 21.6421 9.67895 22.1474 10.0158 22.4842C10.3526 22.8211 10.8579 22.8211 11.1947 22.4842L16.5 17.1789L21.8053 22.4842C22.1421 22.8211 22.6474 22.8211 22.9842 22.4842C23.3211 22.1474 23.3211 21.6421 22.9842 21.3053L17.6789 16Z" fill="#E61F4B"/>
</svg>
