<svg width="33" height="32" viewBox="0 0 33 32" fill="none" xmlns="http://www.w3.org/2000/svg">
<path d="M25.7632 16C25.7632 16.4632 25.3842 16.8421 24.9211 16.8421H8.07895C7.61579 16.8421 7.23684 16.4632 7.23684 16C7.23684 15.5368 7.61579 15.1579 8.07895 15.1579H24.9211C25.3842 15.1579 25.7632 15.5368 25.7632 16ZM32.5 16C32.5 24.8421 25.3421 32 16.5 32C7.65789 32 0.5 24.8421 0.5 16C0.5 7.15789 7.65789 0 16.5 0C25.3421 0 32.5 7.15789 32.5 16ZM30.8158 16C30.8158 8.08421 24.4158 1.68421 16.5 1.68421C8.58421 1.68421 2.18421 8.08421 2.18421 16C2.18421 23.9158 8.58421 30.3158 16.5 30.3158C24.4158 30.3158 30.8158 23.9158 30.8158 16Z" fill="#FFD420"/>
</svg>
