<svg id="Слой_1" data-name="Слой 1" xmlns="http://www.w3.org/2000/svg" viewBox="0 0 246.31 159.26"><defs><style>.cls-1{fill:#1e4f9b;}</style></defs><path class="cls-1" d="M267.77,334.65c0-3.21-2.67-5.81-3.16-5.81s-3.17,2.6-3.17,5.81,2.69,5.81,3.17,5.81S267.77,337.86,267.77,334.65Zm-3-4.24,0,0c0-.16-.05-.32-.08-.49a5.81,5.81,0,0,1,1.45,3.28,6.23,6.23,0,0,1,.14,1.26c0,2.5-.95,4.12-1.53,4.54.07-.23.13-.5.19-.77-.15.2-.25.31-.25.31a28.15,28.15,0,0,0,.09-8Z" transform="translate(-163.12 -217.15)"/><path class="cls-1" d="M316.5,274.81c.33-.56-.49-1.13-.85-.75A.64.64,0,0,0,316.5,274.81Z" transform="translate(-163.12 -217.15)"/><path class="cls-1" d="M300.07,339.8l0,.74C300.16,340.47,300.25,340.26,300.07,339.8Z" transform="translate(-163.12 -217.15)"/><path class="cls-1" d="M164.8,228.08a4,4,0,0,1-.2-.77C164.64,227.48,164.7,227.74,164.8,228.08Z" transform="translate(-163.12 -217.15)"/><path class="cls-1" d="M309.29,274.07a2.53,2.53,0,0,0,1.9-1.86,4.37,4.37,0,0,0,.78.07c-.78-3-6.47-3.25-6.47-3.25a9,9,0,0,0,.75.94A3,3,0,0,0,309.29,274.07Zm-.86-2.68s.08.91.85,1.06a1,1,0,0,0,1-.5.93.93,0,0,1-1.19,1.06C308.13,272.79,308.43,271.39,308.43,271.39Z" transform="translate(-163.12 -217.15)"/><path class="cls-1" d="M409.41,227.33l-.14-3.9c-.69.94-1.84,2.3-2.38,3.25-3.13,4.17-9.18,8.61-16.15,12.39a26.77,26.77,0,0,0,5.38-6.9,21.27,21.27,0,0,0,2.61-11.77l-.23-3.25-2.42,2.76,0,.22c-8.31,9.39-24.71,16.64-46.67,21.85-7.15,1.64-15.85,3.31-26.52,4.85l-3,.43c-4.52.63-6.59.92-8.37,1.72a19.49,19.49,0,0,0-4.71,3.45c-1.09.95-2.46,2.14-4.07,3.46-.31.25-.56.47-.89.75-1.26,1.07-3.42,2.9-5.5,4.45-.37.28-.74.54-1.08.76s-.72.47-1.06.68l-7.43,4.62c-9.74-4.56-10.88-5.55-20.75-14l-1.2-1c-4.44-3.81-5.09-3.9-10-4.62l-1.25-.18c-19.57-2.84-59.24-8.61-74.44-23.57-.38-.45-.82-.91-1.28-1.38l-.28-.29c-.32-.38-.62-.75-.9-1.12h0c-.24-.32-.47-.64-.67-.95l0-.1-2.4-2.75-.23,3.25a21.27,21.27,0,0,0,2.61,11.77,27.42,27.42,0,0,0,6.12,7.57c-7.08-4.21-13.14-8.81-16.32-13.06-.78-1.09-1.6-2.17-2.39-3.25l-.14,3.9c-.3,8.8,3.12,14.64,6.93,18.41a26.38,26.38,0,0,0,4.68,3.65l-.14,1.28a1.5,1.5,0,0,0,0,.3v0c.35,4.28,2.87,6.82,4.73,8.69l.66.66a16.79,16.79,0,0,0,4.87,3.52v2l0,.14a10.09,10.09,0,0,0,1.15,3.34,14.21,14.21,0,0,0,6.88,5.88,17.13,17.13,0,0,0,4.7,1.32l.5,2.2a6.33,6.33,0,0,0,2.43,3.61,12.83,12.83,0,0,0,6.11,2.26,22.4,22.4,0,0,0,7.1-.31l.41,1.29a6.88,6.88,0,0,0,3.06,3.82,11.15,11.15,0,0,0,5.34,1.46,18.33,18.33,0,0,0,6.23-.9,20,20,0,0,0,3-1.21l.44,1.25a5.5,5.5,0,0,0,2.66,3,9.79,9.79,0,0,0,5.71.9,14.47,14.47,0,0,0,4.08-1.09l.93,1.3a6.24,6.24,0,0,0,3.62,2.45,9.12,9.12,0,0,0,4.4-.06,12.55,12.55,0,0,0,3.62-1.58c-3,3-6.14,6.34-9.1,9.92l-3.37,4.07c-2.57,1.35-4.95,2.53-7.17,3.58a158.08,158.08,0,0,1-17.82,7.19l-1.72.59,1.06,1.49a4.28,4.28,0,0,0,.74.79h0c3.75,3.22,11.61.26,15.31-1.3a119.39,119.39,0,0,1-22.81,7.13l-1.51.28.47,1.46c2.16,6.83,12.21,4,18.72,1.41-3.69,1.91-7.38,3.64-11.2,5.35l-1.82.81c2.81,3.43,4.74,3.76,9.37,2.77a36.19,36.19,0,0,0,10-4c-1,.64-2,1.47-3,2.14L231.3,340l2.22,1.06c3.8,1.81,8.46-.17,13-3.63a53,53,0,0,0,4.5-3.88l-1.24,1.33,2.5.41a7.35,7.35,0,0,0,5.83-1.94l.32-.26.78-.72a45.79,45.79,0,0,0,4.64-6.5,36.64,36.64,0,0,0,2.22-4.06,13.62,13.62,0,0,0,5.22,2.87,8.48,8.48,0,0,0,3.65,1.76,3.67,3.67,0,0,0-2.28,3.18h0c-1.92-.22-3.91-.47-6-.75a8,8,0,0,1,2.68,5.79,7.87,7.87,0,0,1-2.8,5.86c1.49-.13,4.8-.4,8.83-.67l0,1.25h.15a2,2,0,0,0,.9,1.28,4.11,4.11,0,0,0,4.45-.08,26.74,26.74,0,0,0,2.74-.83A5.14,5.14,0,0,0,284,341l.78-1.72,5.35-.24A9.14,9.14,0,0,0,285,326.13c-2.14-.73-2.19-1-3-2.71a32,32,0,0,1-2.78-9.29l1.14-.28.09.23c.79,2,2.14,3,3.66,4.31a9.17,9.17,0,0,0,4.31,4.86l2.95,1.27a11.56,11.56,0,0,0,3.34,1.69,4.55,4.55,0,0,0-3,2.87h0a8.88,8.88,0,0,0-1.07.53c1.3,3,1.94,6.09.6,9.23l-.22.57a8.56,8.56,0,0,0,0,1.23,26.59,26.59,0,0,1-1.14,7.75l-1.62,1a28.88,28.88,0,0,1-8.7,3.45,69,69,0,0,1-7.74,1.3l-1.71.23a22.25,22.25,0,0,0-8.95,3.72h0L259,359.6l3.28.27-.64,2.81,1.92-1.28,0,0a17.82,17.82,0,0,1,7.17-3l.62-.09h0l1-.12c1.69-.2,4-.49,6.62-1a41,41,0,0,0,7.9-2.33,18.68,18.68,0,0,1-5.8,5.39,30.52,30.52,0,0,1-6.68,3,49.4,49.4,0,0,1-5.73,1.32,35.68,35.68,0,0,0-7.19,1.89,24.31,24.31,0,0,0-7.72,5.23l-2,1.91,3.33-.4-.47,3.23,1.93-1.87a20.4,20.4,0,0,1,6.53-4.41,31.19,31.19,0,0,1,6.21-1.62l.1,0a37.41,37.41,0,0,0,13.73-4.83,22.57,22.57,0,0,0,6.77-6.17,25.46,25.46,0,0,0,3.06-5.58l2.43-3.48a13.36,13.36,0,0,0,1.46-2.65,14.59,14.59,0,0,0,.85-3.09l0-.1a6.54,6.54,0,0,0,1.15,0,2.85,2.85,0,0,0,1.3-.53l.11.06.23,0a2.68,2.68,0,0,0,2.08-.78,4.83,4.83,0,0,0,.38-.4h0a6.75,6.75,0,0,0,.91-1.66c5.23.23,9.08.67,16.73,1.28,1-.56,2.24-3.16,2.18-5.87a8.15,8.15,0,0,0-2.49-5.9c-3.62.44-7.55.81-10.75,1.11-1.06-2-2.82-3-5.1-3.76-2.91-1-2.4-1.13-3.37-3-1.38-2.72-2.85-13.16-2.84-16v-3.46a63.42,63.42,0,0,0,12.14-13.26l.7.46a10.14,10.14,0,0,0,5.66,1.57,7.29,7.29,0,0,0,5-2l1.87-1.88c3.09,3.51,12.35,4.08,13.84-1.06l.6-2.06c.57.27,1.14.5,1.71.71a19,19,0,0,0,6.91,1.12,11.12,11.12,0,0,0,5.64-1.53h0a5.35,5.35,0,0,0,2.22-2.67l.86-2.39a25.65,25.65,0,0,0,2.88.11,13.86,13.86,0,0,0,7.14-1.77,5.74,5.74,0,0,0,2.5-3.19l.76-2.57c.87,0,1.68-.08,2.52-.17a4.77,4.77,0,0,0,1.24.61,10,10,0,0,0,5.44-.87c3.22-1.34,5.61-3.59,6.44-6.52L385.8,264c6.58-2,14.17-8.6,12.86-15.12a25.5,25.5,0,0,0,3.82-3.1C406.29,242,409.72,236.13,409.41,227.33ZM376,235.05c8.78-3.9,15.49-7.34,21.28-14.68a1,1,0,0,0,.06-.22h0c.84,11.6-8.84,19.1-10.8,20.06l-.18.06a50.71,50.71,0,0,0,5.42-10.59c-8.83,8.47-26.4,16.73-39.46,19.2C361,245.86,370.82,240.57,376,235.05Zm-211.54-8,.07.09h0c7.28,9.71,28.71,21,44.1,25.69-20-.26-31.11-6.89-37.15-13.36A29.9,29.9,0,0,0,179.74,250C177.4,249.09,163.91,243.69,164.49,227Zm16.49,32c-1.7-1.78-4.67-4.21-5-8.53a.2.2,0,0,1,0-.07l3,1.81,0,0c5.09,2.74,16.43,7.67,33.19,9.18-11.35,1.92-19.38.75-25-1.43a37.13,37.13,0,0,0,9.62,4.54C192.62,264.87,185.34,263.65,181,259.06Zm5.24,6.35h0c7.89,2.73,15.94,7,33.78,4.41-8,3.53-17.78,4.36-24.94,2.24a15.18,15.18,0,0,0,5.26,2.57C198.18,275.82,187.46,273.14,186.22,265.41Zm13.22,12.65c3.17,1.27,19.27,2,27.46-3.63C218.35,285.6,201,284.88,199.44,278.06Zm16,6.75c2.95,1,16.37,1.16,23.74-4.88C232.84,290.38,217.7,291.88,215.46,284.81ZM230,258c3,3.47,9.26,5.29,9.26,5.29C231.16,263.81,227.36,260.12,230,258Zm3.57,31.24c2.53.5,12.88-.47,17.9-6.07C248.54,293,235.44,294.7,233.52,289.2Zm7.73-22c2.53,2.58,7.54,3.7,7.54,3.7C242.48,271.75,239.31,269,241.25,267.21ZM246.72,293c2.08.24,9.75-1.13,14.67-6C259.58,294.05,250.1,297.72,246.72,293Zm5.74-18.24c2,2.08,6.07,3,6.07,3C253.46,278.42,250.91,276.23,252.46,274.76Zm-32.22,45.87c10.52-3.6,22.26-8.26,45.32-22.39C255.59,310.11,225.1,327.4,220.24,320.63Zm44.32-4.5c-2.93-2.59-5.58-11.77,1.26-13.56C264.21,304.76,263,308.72,264.56,316.13Zm-40.92,15.48c-9.53,2.72-11-2.24-11-2.24a120.68,120.68,0,0,0,23.11-7.21c10.29-4.59,19.68-11.91,23.3-14.65a11.52,11.52,0,0,0-.27,3.13C242.63,323.52,232.17,329.16,223.64,331.61Zm-4.23,6.17c13.12-5.88,24.74-11.94,39.83-24.67h0a11.53,11.53,0,0,0,1,2.19c-6.35,5.41-18.37,15.77-23,18.64C231.4,337.58,222.62,340.92,219.41,337.78Zm14.69,1.66c12.85-8.08,18.1-13.7,27-22.77.33.47.69.93,1.07,1.38C260,321.1,243.26,343.8,234.1,339.44Zm18.39-5.88a76.49,76.49,0,0,0,10.77-14.31c.53.56,1.09,1.11,1.64,1.63C261.91,327,257.28,334.33,252.49,333.56ZM268,310.3c-.83,1.83-1.1,7.48,1.67,11.49C266.28,320.25,263.11,312.67,268,310.3Zm2.85,5.75c.25,4.07,3.17,7.18,5.22,8.92C272.49,324,267.62,319.79,270.85,316.05ZM278.7,304l-.52,3.86a8,8,0,0,0-5.38,4C273.16,305,278.7,304,278.7,304Zm-4.15.48c.06-3.34,4.59-5.75,4.59-5.75l-.38,3.39A8.34,8.34,0,0,0,274.55,304.46Zm5.94,36.37h0c-.57.84-3.52.46-3.65-.42.17,0,2.35-.08,2.62-.08a2.48,2.48,0,0,0,.68-.09,7.14,7.14,0,0,0,2.46-1.58C282,339.76,281.69,340.45,280.49,340.83Zm7.65-11.73c.95,1.1,2.15,4,1.19,5.24a3.37,3.37,0,0,1-1.53,2.15,3.84,3.84,0,0,0,.85-1.89c-.37-.08-.72-.47-.74-1.31,0-2.55-1.79-4-4-4.78,1.25.71,3,2.44,3.15,4.46,0,.54.23,1.35-.27,1.92a2.59,2.59,0,0,1-1.61,1.93,3.4,3.4,0,0,0,.92-1.72c-.38-.1-.73-.53-.63-1.36a3.68,3.68,0,0,0-.56-2,7.54,7.54,0,0,0-3.48-3c1.38.88,4.2,4.06,2.46,6.1a.61.61,0,0,1-.16.12,3.3,3.3,0,0,1-1.88,1.94,3.48,3.48,0,0,0,1.22-2,1.25,1.25,0,0,1-.46-1.28,2.85,2.85,0,0,0-.73-2.27h0a13.49,13.49,0,0,0-3.64-2.66l-4-.49c.09-.37,1.09-1,2.66-1.34a5.56,5.56,0,0,0,.66-1.05,11.13,11.13,0,0,0,3.54-1C282.64,327.39,286,326.64,288.14,329.1Zm-7.36-5.45a10.76,10.76,0,0,1-3.61,1.11,7,7,0,0,1,.19-4.38,2.47,2.47,0,0,0-1.94,1.48,7.29,7.29,0,0,1,1-6.52c-.81-.33-3.13,2.24-3.13,2.24-.59-3.53,1.74-6.11,4.61-7.25C277,316,280.78,323.65,280.78,323.65Zm-31.57-18.28c9.6-11.6,20.58-20.45,27.18-25.51-6.7-.69-14.62-2.54-20.4-5.58a161.27,161.27,0,0,0,19.43-.44h0c-8.32-.25-21.94-2.43-30.24-6.85a88.44,88.44,0,0,0,20-.65c-8-.45-21.26-2.56-30-8a117.51,117.51,0,0,0,21,.16l-.41-.39c-17.71-3.93-60.26-13-75.73-28.77a51.19,51.19,0,0,0,5.57,11l-.18-.06c-2-1-11.64-8.46-10.8-20.06h0a23.6,23.6,0,0,0,1.84,2.47c.58.6,1.17,1.2,1.6,1.71,15.63,15.42,56.22,21.21,75.75,24,5.28.76,5.73.68,10.08,4.4,11.35,9.73,12,10.45,22.92,15.55a4.73,4.73,0,0,1,.71-.34,57.84,57.84,0,0,1,15.08-3.66c4.46-.35,12.56.65,15,5.74a8.39,8.39,0,0,1,.76,3.57c2,2.66,3.05,6.81-.69,8.46,1.71-2.46-1.73-5.86-4.85-4-3.67,2.24-7.57,8-17.37,9.7a8.06,8.06,0,0,0,1-3,29,29,0,0,1-11.14,1.57s3.61-1.73,4.37-3.8C276.79,287.24,259.28,299.93,249.21,305.37Zm32.5,7.87q.78-.28,1.56-.6a23.84,23.84,0,0,0,.57,3.36A6.36,6.36,0,0,1,281.71,313.24Zm5.57-2.51c-.83,1.74-1.1,7.11,1.67,10.92C285.56,320.19,282.38,313,287.28,310.73ZM290,315.6c.35,4.39,3.23,7.29,5.22,9C291.69,323.59,286.81,319.23,290,315.6Zm-3.28,37.81c-5.23,2.26-11.18,3-14.51,3.38l-1.61.2a18.71,18.71,0,0,0-7.59,3.18l.37-1.59-1.69-.14a21,21,0,0,1,8.57-3.58c.55-.09,1.06-.15,1.68-.22,3.85-.47,11.46-1.45,16.84-4.89A12.18,12.18,0,0,1,286.67,353.41Zm7.21-9.51a29.68,29.68,0,0,1-1.32,5.82l0,0a22.86,22.86,0,0,1-9.94,12.64,36.56,36.56,0,0,1-13.43,4.72c-4.46.84-8.43,1.58-13.31,6.3l.25-1.76-1.8.21c5.37-5.17,9.64-6,14.44-6.87a34.74,34.74,0,0,0,12.71-4.45c10.48-6.23,10.49-18.95,10.45-20.39a17.39,17.39,0,0,0,2.2-.19,24.21,24.21,0,0,1-.24,4Zm2.84-1.82a12.68,12.68,0,0,1-2.16,5.37,18,18,0,0,0,.44-3c0-1.46-.31-4.51-.31-4.51h.71a8,8,0,0,0,1.41,0h.12A20.68,20.68,0,0,1,296.72,342.08Zm.3-3.17a10.12,10.12,0,0,1-1.84,0v-.07h-.08c0-.42,0-.89,0-1.19a4.27,4.27,0,0,1-.45,1.25,23.86,23.86,0,0,1-2.71.2l0,0c-.07,0-.11,0-.09-.05a10.69,10.69,0,0,0-.29-9.19,1.44,1.44,0,0,1,1.19-.43c.46,0,.9,0,1.31.06l0,.08h0a8.76,8.76,0,0,1,1.16,3.9,8,8,0,0,0-.41-3.71l-.05-.23h.19c.66,0,1.32-.09,1.63.17v0a.18.18,0,0,1,.07.05,18.28,18.28,0,0,1,1.12,5A7.88,7.88,0,0,1,297,338.91Zm1.77-3.85a16.44,16.44,0,0,0-1-4.76c-.06-.17-.09-.17-.1-.23h0l1,.59c.94,2.26,1.62,6,.09,8.76l-.06.08-.77,0h0A9.13,9.13,0,0,0,298.79,335.06Zm1.37,5.41-.05.07h0a2.43,2.43,0,0,1-2.1.34l.06-.87c.5,0,1,0,1.07,0a3.08,3.08,0,0,0,.94-.18,8.37,8.37,0,0,0,2.2-1.5C301.72,339.4,301.38,340.08,300.16,340.47Zm7.4-11.37c.95,1.11,2.17,4.1,1.15,5.28a.47.47,0,0,1-.1.1,3.21,3.21,0,0,1-1.43,1.81,3.9,3.9,0,0,0,.83-1.71c-.35-.1-.67-.49-.68-1.29,0-2.55-1.8-4-4-4.78,1.24.71,3,2.44,3.14,4.46,0,.55.24,1.4-.32,2a.13.13,0,0,1-.07.06,2.54,2.54,0,0,1-1.52,1.63,3.54,3.54,0,0,0,.89-1.55c-.35-.13-.66-.56-.57-1.34a3.6,3.6,0,0,0-.56-2,7.54,7.54,0,0,0-3.48-3c1.38.88,4.21,4.06,2.46,6.1a.51.51,0,0,1-.29.17,3.22,3.22,0,0,1-1.79,1.7,3.57,3.57,0,0,0,1.2-1.84,1.29,1.29,0,0,1-.39-1.24,2.89,2.89,0,0,0-.73-2.27h0a13.49,13.49,0,0,0-3.64-2.66l-4.05-.49c0-.23.67-.94,2.24-1.27,0,0,1.12-1,1.08-1.12a11.13,11.13,0,0,0,3.54-1C302.05,327.39,305.46,326.64,307.56,329.1Zm-7.71-5.75a11.15,11.15,0,0,1-3.61,1.06,6.62,6.62,0,0,1,.19-4.22,2.49,2.49,0,0,0-1.94,1.44,6.81,6.81,0,0,1,1-6.28c-.81-.32-3.12,2.55-3.12,2.55a6.07,6.07,0,0,1,2.56-6.27c-1.73.05-3.48,1.57-4.37,2.59-.26-6.25,6.28-8.88,6.28-8.88C296.87,311.8,296.59,317,299.85,323.35Zm-20.1-11.1.2-1.57a50.35,50.35,0,0,0,7.4-4.27,5.58,5.58,0,0,1-2.31-2.19,15.92,15.92,0,0,0,7.68-2.21c-2.05-.36-4.46-1.51-5.19-2.87a22,22,0,0,0,9.16-1.58c-2.89-.07-5.35-2.12-6.61-3.59a16.8,16.8,0,0,0,10.75-2.14c-3,.08-4.65-.35-5.65-1.7,10.39-1.95,13.38-4.62,17.49-9.4a.46.46,0,0,1,.07-.07h0l.12-.11h0c1.65-1.4,3.5-.08,3.51.93a2.36,2.36,0,0,1-2.56.21C310.23,290.49,293.78,308.84,279.75,312.25Zm32.05-22.87c.58-.79.92-1.29,1.42-2a15,15,0,0,0,7.58,1.81C318.61,291.35,314.46,291.11,311.8,289.38Zm1.12-26.57a26.1,26.1,0,0,0-9-1.19,48.28,48.28,0,0,0-9.09,1.71c.7-.43,1.49-.94,2.24-1.5,2.7-2,5.58-4.54,6.44-5.25,9.65-7.92,5.84-6.79,19.52-8.77,21.41-3.08,35-6.72,43.93-9.51a72.16,72.16,0,0,1-16.35,9c-8.61,3-18.14,5.23-25.44,7.58C320,256.53,318.68,257.78,312.92,262.81ZM322,284c4,3,12.24,3.31,14.16,2.81C335.11,290.46,324.84,290.59,322,284Zm9.53-6.2c6.74,5.54,19,5.41,21.73,4.51C351.48,287.33,337.62,287.18,331.55,277.78Zm9-5.94c7.43,4.35,23.06,4.35,26.09,3.28C364.61,281.92,345.53,279.53,340.54,271.84Zm42.53-6.36c-1.42,5.43-9.13,7.31-10.56,6.48a12.42,12.42,0,0,0,3.43-1.5c-8.16,2.52-20.61.79-29.2-4,18.88,3.57,28.24,1,36.35-1l0,.06Zm14.34-14.54c-.73,4.28-3.92,6.43-5.78,8.06-4.76,4.17-12.12,4.72-16.31,4.07a34.81,34.81,0,0,0,13.05-5.62c-6.5,2.76-16.7,4.55-31.17.71,20.89,0,36.46-5.62,39.63-7l.59-.29A.43.43,0,0,0,397.41,250.94Zm-4.59-.94a29.94,29.94,0,0,0,8.31-10.78c-5.91,5.92-16.78,11.51-36.62,10.12,14-1.58,36.18-12.5,43.46-22.21h0l.07-.09C408.64,243.69,395.15,249.09,392.82,250Z" transform="translate(-163.12 -217.15)"/><path class="cls-1" d="M264.93,338.25a6.73,6.73,0,0,0,1.28-4.23,6.37,6.37,0,0,0-.08-.8,6.18,6.18,0,0,0-1.37-2.79s0,.07,0,.1A16.7,16.7,0,0,1,264.93,338.25Z" transform="translate(-163.12 -217.15)"/><path class="cls-1" d="M295.85,342.46v-.06c.05-.31.1-.68.14-1h-.24Z" transform="translate(-163.12 -217.15)"/><path class="cls-1" d="M291.56,349.3A21.8,21.8,0,0,1,282,361.81,32.41,32.41,0,0,1,274.9,365a52.1,52.1,0,0,1-5.93,1.37,33.83,33.83,0,0,0-6.83,1.78,20.54,20.54,0,0,0-4.94,2.92h0l-.06.47a20.59,20.59,0,0,1,5.19-3.11,33.64,33.64,0,0,1,6.67-1.74l.1,0a35.65,35.65,0,0,0,13-4.59,20.76,20.76,0,0,0,6.22-5.66,24,24,0,0,0,3.31-6.49l.08-.22,0,0c.29-.86.51-1.7.69-2.48s.28-1.39.38-2l.12-.91c.14-1.09.2-2,.22-2.68v-.16l-.37.05A29.18,29.18,0,0,1,291.56,349.3Z" transform="translate(-163.12 -217.15)"/><path class="cls-1" d="M296.37,332.32a5.75,5.75,0,0,1-.15,2.06l-.12.42v3s0,.24,0,.65h.3a7.56,7.56,0,0,0,.54-3.27,14.44,14.44,0,0,0-.68-3.52Z" transform="translate(-163.12 -217.15)"/><path class="cls-1" d="M294.14,332.24a8.83,8.83,0,0,0-.56-1.44l-.67,0a12.39,12.39,0,0,1,.87,4.15,10.75,10.75,0,0,1-.46,3.54l.74-.07c.06-.18.1-.37.15-.58,0,0,.28-1.13.3-1.22l-.09-2.43A8.53,8.53,0,0,0,294.14,332.24Z" transform="translate(-163.12 -217.15)"/><path class="cls-1" d="M272.05,356l-.85.11-.8.11a19.18,19.18,0,0,0-5.9,2l-.09.43a18.63,18.63,0,0,1,6.06-2.13l.67-.09h0l1-.12c1.65-.2,3.95-.48,6.48-1a39.73,39.73,0,0,0,7.56-2.24c.18-.23.35-.46.51-.7a34.48,34.48,0,0,1-6.65,2.24A65.86,65.86,0,0,1,272.05,356Z" transform="translate(-163.12 -217.15)"/></svg>