<svg width="32" height="32" viewBox="0 0 32 32" fill="none" xmlns="http://www.w3.org/2000/svg">
<path d="M16 0C7.15789 0 0 7.15789 0 16C0 24.8421 7.15789 32 16 32C24.8421 32 32 24.8421 32 16C32 7.15789 24.8421 0 16 0ZM16 30.3158C8.08421 30.3158 1.68421 23.9158 1.68421 16C1.68421 8.08421 8.08421 1.68421 16 1.68421C23.9158 1.68421 30.3158 8.08421 30.3158 16C30.3158 23.9158 23.9158 30.3158 16 30.3158ZM25.6421 10.5684C25.3053 10.2316 24.8 10.2316 24.4632 10.5684L13.7263 21.3474L9.22105 16.8421C8.88421 16.5053 8.33684 16.5053 8.04211 16.8421C7.70526 17.1789 7.70526 17.7263 8.04211 18.0211L13.1368 23.1158C13.3053 23.2842 13.5158 23.3684 13.7263 23.3684C13.9368 23.3684 14.1474 23.2842 14.3158 23.1158L25.6421 11.7474C25.9789 11.4105 25.9789 10.9053 25.6421 10.5684Z" fill="#00A1E3"/>
</svg>
